<svg xmlns="http://www.w3.org/2000/svg" xmlns:xlink="http://www.w3.org/1999/xlink" version="1.1" width="42px" height="42px" viewBox="0 0 920 920" xml:space="preserve">
<desc>Created with Fabric.js 3.5.0</desc>
<defs>
</defs>
<rect x="0" y="0" width="100%" height="100%" fill="rgba(255,255,255,0)"/>
<g transform="matrix(1.9636 0 0 1.9636 539.9909 539.9909)" id="443688">
<g style="" vector-effect="non-scaling-stroke">
		<g transform="matrix(1 0 0 1 98.0155 -3.2235)">
<polygon style="stroke: none; stroke-width: 1; stroke-dasharray: none; stroke-linecap: butt; stroke-dashoffset: 0; stroke-linejoin: miter; stroke-miterlimit: 4; is-custom-font: none; font-file-url: none; fill: rgb(125,126,127); fill-rule: nonzero; opacity: 1;" points="64.2645,-47.6785 -85.0165,36.9735 -77.8915,47.6785 85.0165,-46.0345 "/>
</g>
		<g transform="matrix(1 0 0 1 101.578 2.951)">
<polygon style="stroke: none; stroke-width: 1; stroke-dasharray: none; stroke-linecap: butt; stroke-dashoffset: 0; stroke-linejoin: miter; stroke-miterlimit: 4; is-custom-font: none; font-file-url: none; fill: rgb(191,191,193); fill-rule: nonzero; opacity: 1;" points="74.952,-32.443 -74.331,52.209 -81.454,41.504 81.454,-52.209 "/>
</g>
		<g transform="matrix(1 0 0 1 31.998 82.04)">
<polygon style="stroke: none; stroke-width: 1; stroke-dasharray: none; stroke-linecap: butt; stroke-dashoffset: 0; stroke-linejoin: miter; stroke-miterlimit: 4; is-custom-font: none; font-file-url: none; fill: rgb(64,64,65); fill-rule: nonzero; opacity: 1;" points="-0.004,-25.88 44.541,-0.003 -0.004,25.88 -44.541,-0.003 "/>
</g>
		<g transform="matrix(1 0 0 1 9.7255 102.5505)">
<polygon style="stroke: none; stroke-width: 1; stroke-dasharray: none; stroke-linecap: butt; stroke-dashoffset: 0; stroke-linejoin: miter; stroke-miterlimit: 4; is-custom-font: none; font-file-url: none; fill: rgb(111,112,114); fill-rule: nonzero; opacity: 1;" points="-22.2685,-20.5135 22.2685,5.3695 22.2685,20.5135 -22.2685,-5.3615 "/>
</g>
		<g transform="matrix(1 0 0 1 54.2665 102.5505)">
<polygon style="stroke: none; stroke-width: 1; stroke-dasharray: none; stroke-linecap: butt; stroke-dashoffset: 0; stroke-linejoin: miter; stroke-miterlimit: 4; is-custom-font: none; font-file-url: none; fill: rgb(175,175,178); fill-rule: nonzero; opacity: 1;" points="22.2725,-20.5135 -22.2725,5.3695 -22.2725,20.5135 22.2725,-5.3615 "/>
</g>
		<g transform="matrix(1 0 0 1 -31.6275 119.206)">
<polygon style="stroke: none; stroke-width: 1; stroke-dasharray: none; stroke-linecap: butt; stroke-dashoffset: 0; stroke-linejoin: miter; stroke-miterlimit: 4; is-custom-font: none; font-file-url: none; fill: rgb(64,64,65); fill-rule: nonzero; opacity: 1;" points="0.0035,-25.88 44.5455,-0.005 0.0035,25.88 -44.5455,-0.005 "/>
</g>
		<g transform="matrix(1 0 0 1 -92.4425 117.2925)">
<polygon style="stroke: none; stroke-width: 1; stroke-dasharray: none; stroke-linecap: butt; stroke-dashoffset: 0; stroke-linejoin: miter; stroke-miterlimit: 4; is-custom-font: none; font-file-url: none; fill: rgb(111,112,114); fill-rule: nonzero; opacity: 1;" points="-60.8185,-42.9375 60.8185,27.7935 60.8185,42.9375 -60.8185,-27.7845 "/>
</g>
		<g transform="matrix(1 0 0 1 -9.353 139.7155)">
<polygon style="stroke: none; stroke-width: 1; stroke-dasharray: none; stroke-linecap: butt; stroke-dashoffset: 0; stroke-linejoin: miter; stroke-miterlimit: 4; is-custom-font: none; font-file-url: none; fill: rgb(175,175,178); fill-rule: nonzero; opacity: 1;" points="22.271,-20.5145 -22.271,5.3705 -22.271,20.5145 22.271,-5.3715 "/>
</g>
		<g transform="matrix(1 0 0 1 -45.0875 -133.2045)">
<polygon style="stroke: none; stroke-width: 1; stroke-dasharray: none; stroke-linecap: butt; stroke-dashoffset: 0; stroke-linejoin: miter; stroke-miterlimit: 4; is-custom-font: none; font-file-url: none; fill: rgb(64,64,65); fill-rule: nonzero; opacity: 1;" points="-0.0025,-62.6975 108.0765,0.0955 0.0985,62.6975 -108.0765,0.0955 "/>
</g>
		<g transform="matrix(1 0 0 1 9 -39.0225)">
<polygon style="stroke: none; stroke-width: 1; stroke-dasharray: none; stroke-linecap: butt; stroke-dashoffset: 0; stroke-linejoin: miter; stroke-miterlimit: 4; is-custom-font: none; font-file-url: none; fill: rgb(175,175,178); fill-rule: nonzero; opacity: 1;" points="54.087,-94.1825 -54.087,-31.5795 -54.087,94.1825 54.087,31.4075 "/>
</g>
		<g transform="matrix(1 0 0 1 12.9995 -28.743)">
<polygon style="stroke: none; stroke-width: 1; stroke-dasharray: none; stroke-linecap: butt; stroke-dashoffset: 0; stroke-linejoin: miter; stroke-miterlimit: 4; is-custom-font: none; font-file-url: none; fill: rgb(64,64,65); fill-rule: nonzero; opacity: 1;" points="-32.6935,-18.185 -32.6935,2.759 -8.1385,-11.042 -8.1385,54.93 8.1375,45.633 8.1375,-20.194 32.6935,-33.986 32.6935,-54.93 "/>
</g>
		<g transform="matrix(1 0 0 1 -99.174 -39.0225)">
<polygon style="stroke: none; stroke-width: 1; stroke-dasharray: none; stroke-linecap: butt; stroke-dashoffset: 0; stroke-linejoin: miter; stroke-miterlimit: 4; is-custom-font: none; font-file-url: none; fill: rgb(111,112,114); fill-rule: nonzero; opacity: 1;" points="-54.087,-94.1825 54.087,-31.5795 54.087,94.1825 -54.087,31.4075 "/>
</g>
		<g transform="matrix(1 0 0 1 9 62.7305)">
<polygon style="stroke: none; stroke-width: 1; stroke-dasharray: none; stroke-linecap: butt; stroke-dashoffset: 0; stroke-linejoin: miter; stroke-miterlimit: 4; is-custom-font: none; font-file-url: none; fill: rgb(255,255,255); fill-rule: nonzero; opacity: 1;" points="54.087,-74.6015 -54.087,-11.9995 -54.087,74.6015 54.087,11.8265 "/>
</g>
		<g transform="matrix(1 0 0 1 -99.174 62.7305)">
<polygon style="stroke: none; stroke-width: 1; stroke-dasharray: none; stroke-linecap: butt; stroke-dashoffset: 0; stroke-linejoin: miter; stroke-miterlimit: 4; is-custom-font: none; font-file-url: none; fill: rgb(159,159,160); fill-rule: nonzero; opacity: 1;" points="-54.087,-74.6015 54.087,-11.9995 54.087,74.6015 -54.087,11.8265 "/>
</g>
		<g transform="matrix(1 0 0 1 12.999 63.73)">
<polygon style="stroke: none; stroke-width: 1; stroke-dasharray: none; stroke-linecap: butt; stroke-dashoffset: 0; stroke-linejoin: miter; stroke-miterlimit: 4; is-custom-font: none; font-file-url: none; fill: rgb(0,75,194); fill-rule: nonzero; opacity: 1;" points="5.681,-9.892 5.681,-30.634 -5.675,-24.259 -5.675,-3.508 -22.79,6.111 -22.79,20.706 -5.675,11.089 -5.675,30.634 5.681,24.258 5.681,4.712 22.79,-4.906 22.79,-19.501 "/>
</g>
		<g transform="matrix(1 0 0 1 -76.1388 82.3254)">
<path style="stroke: none; stroke-width: 1; stroke-dasharray: none; stroke-linecap: butt; stroke-dashoffset: 0; stroke-linejoin: miter; stroke-miterlimit: 4; is-custom-font: none; font-file-url: none; fill: rgb(204,204,204); fill-rule: nonzero; opacity: 1;" transform=" translate(-173.8612, -332.3254)" d="M 145.209 242.948 c -24.851 11.04 -35.051 42.355 -22.796 69.94 c 6.397 14.388 90.896 118.219 103.86 112.453 c 12.969 -5.766 -7.476 -138.056 -13.873 -152.448 C 200.141 245.313 170.064 231.902 145.209 242.948 z" stroke-linecap="round"/>
</g>
		<g transform="matrix(1 0 0 1 -72.4775 65.65)">
<polygon style="stroke: none; stroke-width: 1; stroke-dasharray: none; stroke-linecap: butt; stroke-dashoffset: 0; stroke-linejoin: miter; stroke-miterlimit: 4; is-custom-font: none; font-file-url: none; fill: rgb(0,75,194); fill-rule: nonzero; opacity: 1;" points="28.5155,48.737 8.2715,3.186 27.9375,-5.554 33.3385,-3.475 38.9055,-5.948 30.4825,-24.891 24.9255,-22.419 22.8465,-17.012 3.1795,-8.272 -17.0615,-53.817 -14.9825,-59.228 -17.4505,-64.79 -36.3935,-56.372 -33.9265,-50.81 -28.5155,-48.726 -8.2725,-3.183 -27.9325,5.554 -33.3435,3.481 -38.9055,5.953 -30.4875,24.892 -24.9255,22.419 -22.8415,17.013 -3.1795,8.275 17.0665,53.823 14.9825,59.229 17.4555,64.79 36.3985,56.372 33.9215,50.811 "/>
</g>
</g>
</g>
</svg>